<mxfile host="app.diagrams.net" modified="2022-05-05T05:07:23.287Z" agent="5.0 (Windows NT 10.0; Win64; x64) AppleWebKit/537.36 (KHTML, like Gecko) Chrome/100.0.4896.127 Safari/537.36" etag="w5Nq-CRG4H_ZCplcA25L" version="17.4.6" type="github">
  <diagram id="0AbyXbpl1AoOHzvugHHO" name="Page-1">
    <mxGraphModel dx="6534" dy="7206" grid="1" gridSize="10" guides="1" tooltips="1" connect="1" arrows="1" fold="1" page="1" pageScale="1" pageWidth="2336" pageHeight="1654" background="none" math="0" shadow="1">
      <root>
        <mxCell id="0" />
        <mxCell id="1" parent="0" />
        <mxCell id="tBe_GfGEtR8hjlXycrnh-5" style="edgeStyle=orthogonalEdgeStyle;curved=1;orthogonalLoop=1;jettySize=auto;html=1;exitX=1;exitY=0.5;exitDx=0;exitDy=0;entryX=0;entryY=0.5;entryDx=0;entryDy=0;endArrow=none;endFill=0;" edge="1" parent="1" source="xdMU3iZf9lZtiUBWE6Kj-1" target="xdMU3iZf9lZtiUBWE6Kj-74">
          <mxGeometry relative="1" as="geometry" />
        </mxCell>
        <mxCell id="tBe_GfGEtR8hjlXycrnh-6" style="edgeStyle=orthogonalEdgeStyle;curved=1;orthogonalLoop=1;jettySize=auto;html=1;exitX=0.5;exitY=1;exitDx=0;exitDy=0;endArrow=none;endFill=0;entryX=0;entryY=0.5;entryDx=0;entryDy=0;" edge="1" parent="1" source="xdMU3iZf9lZtiUBWE6Kj-1" target="tBe_GfGEtR8hjlXycrnh-7">
          <mxGeometry relative="1" as="geometry">
            <mxPoint x="-1548.3333333333333" y="-3900" as="targetPoint" />
          </mxGeometry>
        </mxCell>
        <mxCell id="tBe_GfGEtR8hjlXycrnh-15" style="edgeStyle=orthogonalEdgeStyle;curved=1;orthogonalLoop=1;jettySize=auto;html=1;exitX=0.25;exitY=1;exitDx=0;exitDy=0;endArrow=none;endFill=0;entryX=1;entryY=0;entryDx=0;entryDy=0;" edge="1" parent="1" source="xdMU3iZf9lZtiUBWE6Kj-1" target="tBe_GfGEtR8hjlXycrnh-17">
          <mxGeometry relative="1" as="geometry">
            <mxPoint x="-1612.9999999999998" y="-4010" as="targetPoint" />
          </mxGeometry>
        </mxCell>
        <mxCell id="tBe_GfGEtR8hjlXycrnh-19" style="edgeStyle=orthogonalEdgeStyle;curved=1;orthogonalLoop=1;jettySize=auto;html=1;exitX=0.75;exitY=1;exitDx=0;exitDy=0;entryX=0;entryY=0.625;entryDx=0;entryDy=0;entryPerimeter=0;endArrow=none;endFill=0;" edge="1" parent="1" source="xdMU3iZf9lZtiUBWE6Kj-1" target="tBe_GfGEtR8hjlXycrnh-16">
          <mxGeometry relative="1" as="geometry" />
        </mxCell>
        <mxCell id="xdMU3iZf9lZtiUBWE6Kj-1" value="Product" style="rounded=0;whiteSpace=wrap;html=1;" parent="1" vertex="1">
          <mxGeometry x="-1613" y="-4095" width="130" height="60" as="geometry" />
        </mxCell>
        <mxCell id="xdMU3iZf9lZtiUBWE6Kj-5" style="edgeStyle=none;rounded=0;orthogonalLoop=1;jettySize=auto;html=1;endArrow=none;endFill=0;entryX=0.5;entryY=0;entryDx=0;entryDy=0;" parent="1" source="xdMU3iZf9lZtiUBWE6Kj-2" target="xdMU3iZf9lZtiUBWE6Kj-1" edge="1">
          <mxGeometry relative="1" as="geometry" />
        </mxCell>
        <mxCell id="xdMU3iZf9lZtiUBWE6Kj-2" value="QTY on hand" style="ellipse;whiteSpace=wrap;html=1;" parent="1" vertex="1">
          <mxGeometry x="-1593" y="-4160" width="70" height="40" as="geometry" />
        </mxCell>
        <mxCell id="xdMU3iZf9lZtiUBWE6Kj-4" style="rounded=0;orthogonalLoop=1;jettySize=auto;html=1;endArrow=none;endFill=0;" parent="1" source="xdMU3iZf9lZtiUBWE6Kj-3" target="xdMU3iZf9lZtiUBWE6Kj-1" edge="1">
          <mxGeometry relative="1" as="geometry" />
        </mxCell>
        <mxCell id="xdMU3iZf9lZtiUBWE6Kj-3" value="&lt;u&gt;Part #&lt;/u&gt;" style="ellipse;whiteSpace=wrap;html=1;" parent="1" vertex="1">
          <mxGeometry x="-1513" y="-4150" width="70" height="40" as="geometry" />
        </mxCell>
        <mxCell id="xdMU3iZf9lZtiUBWE6Kj-7" style="edgeStyle=none;rounded=0;orthogonalLoop=1;jettySize=auto;html=1;endArrow=none;endFill=0;" parent="1" source="xdMU3iZf9lZtiUBWE6Kj-6" target="xdMU3iZf9lZtiUBWE6Kj-1" edge="1">
          <mxGeometry relative="1" as="geometry" />
        </mxCell>
        <mxCell id="xdMU3iZf9lZtiUBWE6Kj-6" value="Name" style="ellipse;whiteSpace=wrap;html=1;" parent="1" vertex="1">
          <mxGeometry x="-1673" y="-4150" width="70" height="40" as="geometry" />
        </mxCell>
        <mxCell id="xdMU3iZf9lZtiUBWE6Kj-9" style="edgeStyle=none;rounded=0;orthogonalLoop=1;jettySize=auto;html=1;entryX=0;entryY=0.25;entryDx=0;entryDy=0;endArrow=none;endFill=0;" parent="1" source="xdMU3iZf9lZtiUBWE6Kj-8" target="xdMU3iZf9lZtiUBWE6Kj-1" edge="1">
          <mxGeometry relative="1" as="geometry" />
        </mxCell>
        <mxCell id="xdMU3iZf9lZtiUBWE6Kj-8" value="Description&lt;br&gt;" style="ellipse;whiteSpace=wrap;html=1;" parent="1" vertex="1">
          <mxGeometry x="-1713" y="-4110" width="70" height="40" as="geometry" />
        </mxCell>
        <mxCell id="xdMU3iZf9lZtiUBWE6Kj-11" style="edgeStyle=none;rounded=0;orthogonalLoop=1;jettySize=auto;html=1;entryX=0;entryY=0.75;entryDx=0;entryDy=0;endArrow=none;endFill=0;" parent="1" source="xdMU3iZf9lZtiUBWE6Kj-10" target="xdMU3iZf9lZtiUBWE6Kj-1" edge="1">
          <mxGeometry relative="1" as="geometry" />
        </mxCell>
        <mxCell id="xdMU3iZf9lZtiUBWE6Kj-10" value="Price" style="ellipse;whiteSpace=wrap;html=1;" parent="1" vertex="1">
          <mxGeometry x="-1713" y="-4060" width="70" height="40" as="geometry" />
        </mxCell>
        <mxCell id="xdMU3iZf9lZtiUBWE6Kj-100" style="edgeStyle=none;rounded=0;orthogonalLoop=1;jettySize=auto;html=1;entryX=0.5;entryY=0;entryDx=0;entryDy=0;endArrow=none;endFill=0;" parent="1" source="xdMU3iZf9lZtiUBWE6Kj-61" target="xdMU3iZf9lZtiUBWE6Kj-91" edge="1">
          <mxGeometry relative="1" as="geometry" />
        </mxCell>
        <mxCell id="82ZFuDDCMctr4lIdkE6s-53" style="edgeStyle=orthogonalEdgeStyle;curved=1;orthogonalLoop=1;jettySize=auto;html=1;exitX=0.75;exitY=0;exitDx=0;exitDy=0;entryX=0.5;entryY=1;entryDx=0;entryDy=0;endArrow=none;endFill=0;" parent="1" source="xdMU3iZf9lZtiUBWE6Kj-61" target="82ZFuDDCMctr4lIdkE6s-52" edge="1">
          <mxGeometry relative="1" as="geometry" />
        </mxCell>
        <mxCell id="tBe_GfGEtR8hjlXycrnh-38" style="edgeStyle=orthogonalEdgeStyle;curved=1;orthogonalLoop=1;jettySize=auto;html=1;exitX=0.75;exitY=1;exitDx=0;exitDy=0;endArrow=none;endFill=0;" edge="1" parent="1" source="xdMU3iZf9lZtiUBWE6Kj-61" target="tBe_GfGEtR8hjlXycrnh-36">
          <mxGeometry relative="1" as="geometry" />
        </mxCell>
        <mxCell id="tBe_GfGEtR8hjlXycrnh-48" style="edgeStyle=orthogonalEdgeStyle;curved=1;orthogonalLoop=1;jettySize=auto;html=1;exitX=0.5;exitY=0;exitDx=0;exitDy=0;entryX=0.5;entryY=1;entryDx=0;entryDy=0;endArrow=none;endFill=0;" edge="1" parent="1" source="xdMU3iZf9lZtiUBWE6Kj-61" target="tBe_GfGEtR8hjlXycrnh-47">
          <mxGeometry relative="1" as="geometry" />
        </mxCell>
        <mxCell id="xdMU3iZf9lZtiUBWE6Kj-61" value="Orders" style="rounded=0;whiteSpace=wrap;html=1;" parent="1" vertex="1">
          <mxGeometry x="-1135" y="-4425" width="120" height="60" as="geometry" />
        </mxCell>
        <mxCell id="xdMU3iZf9lZtiUBWE6Kj-63" style="edgeStyle=none;rounded=0;orthogonalLoop=1;jettySize=auto;html=1;entryX=1;entryY=0.5;entryDx=0;entryDy=0;endArrow=none;endFill=0;" parent="1" source="xdMU3iZf9lZtiUBWE6Kj-62" target="xdMU3iZf9lZtiUBWE6Kj-61" edge="1">
          <mxGeometry relative="1" as="geometry" />
        </mxCell>
        <mxCell id="xdMU3iZf9lZtiUBWE6Kj-62" value="&lt;u&gt;Order ID&lt;/u&gt;" style="ellipse;whiteSpace=wrap;html=1;" parent="1" vertex="1">
          <mxGeometry x="-990" y="-4400" width="70" height="40" as="geometry" />
        </mxCell>
        <mxCell id="xdMU3iZf9lZtiUBWE6Kj-65" style="edgeStyle=none;rounded=0;orthogonalLoop=1;jettySize=auto;html=1;entryX=1;entryY=0;entryDx=0;entryDy=0;endArrow=none;endFill=0;" parent="1" source="xdMU3iZf9lZtiUBWE6Kj-64" target="xdMU3iZf9lZtiUBWE6Kj-61" edge="1">
          <mxGeometry relative="1" as="geometry" />
        </mxCell>
        <mxCell id="xdMU3iZf9lZtiUBWE6Kj-64" value="Status" style="ellipse;whiteSpace=wrap;html=1;" parent="1" vertex="1">
          <mxGeometry x="-965" y="-4470" width="80" height="50" as="geometry" />
        </mxCell>
        <mxCell id="82ZFuDDCMctr4lIdkE6s-48" style="edgeStyle=orthogonalEdgeStyle;curved=1;orthogonalLoop=1;jettySize=auto;html=1;exitX=1;exitY=0.5;exitDx=0;exitDy=0;entryX=0;entryY=0.5;entryDx=0;entryDy=0;endArrow=none;endFill=0;" parent="1" source="xdMU3iZf9lZtiUBWE6Kj-66" target="xdMU3iZf9lZtiUBWE6Kj-61" edge="1">
          <mxGeometry relative="1" as="geometry" />
        </mxCell>
        <mxCell id="xdMU3iZf9lZtiUBWE6Kj-66" value="Date" style="ellipse;whiteSpace=wrap;html=1;" parent="1" vertex="1">
          <mxGeometry x="-1275" y="-4425" width="80" height="50" as="geometry" />
        </mxCell>
        <mxCell id="xdMU3iZf9lZtiUBWE6Kj-69" style="edgeStyle=none;rounded=0;orthogonalLoop=1;jettySize=auto;html=1;entryX=0.25;entryY=0;entryDx=0;entryDy=0;endArrow=none;endFill=0;" parent="1" source="xdMU3iZf9lZtiUBWE6Kj-68" target="xdMU3iZf9lZtiUBWE6Kj-61" edge="1">
          <mxGeometry relative="1" as="geometry" />
        </mxCell>
        <mxCell id="xdMU3iZf9lZtiUBWE6Kj-68" value="Notes" style="ellipse;whiteSpace=wrap;html=1;" parent="1" vertex="1">
          <mxGeometry x="-1230" y="-4490" width="80" height="50" as="geometry" />
        </mxCell>
        <mxCell id="xdMU3iZf9lZtiUBWE6Kj-71" style="edgeStyle=none;rounded=0;orthogonalLoop=1;jettySize=auto;html=1;entryX=1;entryY=1;entryDx=0;entryDy=0;endArrow=none;endFill=0;exitX=0.075;exitY=0.22;exitDx=0;exitDy=0;exitPerimeter=0;" parent="1" source="xdMU3iZf9lZtiUBWE6Kj-70" target="xdMU3iZf9lZtiUBWE6Kj-61" edge="1">
          <mxGeometry relative="1" as="geometry">
            <mxPoint x="-984.2422107297011" y="-4342.057956258992" as="sourcePoint" />
          </mxGeometry>
        </mxCell>
        <mxCell id="xdMU3iZf9lZtiUBWE6Kj-70" value="tracking #" style="ellipse;whiteSpace=wrap;html=1;" parent="1" vertex="1">
          <mxGeometry x="-985" y="-4340" width="80" height="50" as="geometry" />
        </mxCell>
        <mxCell id="tBe_GfGEtR8hjlXycrnh-3" style="edgeStyle=orthogonalEdgeStyle;orthogonalLoop=1;jettySize=auto;html=1;exitX=1;exitY=0.5;exitDx=0;exitDy=0;entryX=0;entryY=0.5;entryDx=0;entryDy=0;curved=1;endArrow=none;endFill=0;" edge="1" parent="1" source="xdMU3iZf9lZtiUBWE6Kj-74" target="xdMU3iZf9lZtiUBWE6Kj-80">
          <mxGeometry relative="1" as="geometry" />
        </mxCell>
        <mxCell id="tBe_GfGEtR8hjlXycrnh-4" style="edgeStyle=orthogonalEdgeStyle;orthogonalLoop=1;jettySize=auto;html=1;exitX=0.5;exitY=0;exitDx=0;exitDy=0;entryX=0;entryY=0.75;entryDx=0;entryDy=0;curved=1;endArrow=none;endFill=0;" edge="1" parent="1" source="xdMU3iZf9lZtiUBWE6Kj-74" target="xdMU3iZf9lZtiUBWE6Kj-61">
          <mxGeometry relative="1" as="geometry" />
        </mxCell>
        <mxCell id="tBe_GfGEtR8hjlXycrnh-24" style="edgeStyle=orthogonalEdgeStyle;curved=1;orthogonalLoop=1;jettySize=auto;html=1;exitX=0.5;exitY=0;exitDx=0;exitDy=0;endArrow=none;endFill=0;entryX=1;entryY=0.5;entryDx=0;entryDy=0;" edge="1" parent="1" source="xdMU3iZf9lZtiUBWE6Kj-74" target="tBe_GfGEtR8hjlXycrnh-23">
          <mxGeometry relative="1" as="geometry">
            <Array as="points">
              <mxPoint x="-1315" y="-4330" />
              <mxPoint x="-1513" y="-4330" />
            </Array>
          </mxGeometry>
        </mxCell>
        <mxCell id="xdMU3iZf9lZtiUBWE6Kj-74" value="Generates&amp;nbsp;" style="rhombus;whiteSpace=wrap;html=1;" parent="1" vertex="1">
          <mxGeometry x="-1355" y="-4105" width="80" height="80" as="geometry" />
        </mxCell>
        <mxCell id="xdMU3iZf9lZtiUBWE6Kj-92" style="edgeStyle=none;rounded=0;orthogonalLoop=1;jettySize=auto;html=1;endArrow=none;endFill=0;" parent="1" source="xdMU3iZf9lZtiUBWE6Kj-80" target="xdMU3iZf9lZtiUBWE6Kj-91" edge="1">
          <mxGeometry relative="1" as="geometry" />
        </mxCell>
        <mxCell id="tBe_GfGEtR8hjlXycrnh-37" style="edgeStyle=orthogonalEdgeStyle;curved=1;orthogonalLoop=1;jettySize=auto;html=1;exitX=1;exitY=0.25;exitDx=0;exitDy=0;entryX=0.5;entryY=1;entryDx=0;entryDy=0;endArrow=none;endFill=0;" edge="1" parent="1" source="xdMU3iZf9lZtiUBWE6Kj-80" target="tBe_GfGEtR8hjlXycrnh-36">
          <mxGeometry relative="1" as="geometry" />
        </mxCell>
        <mxCell id="xdMU3iZf9lZtiUBWE6Kj-80" value="User" style="rounded=0;whiteSpace=wrap;html=1;" parent="1" vertex="1">
          <mxGeometry x="-1130" y="-4097.5" width="120" height="65" as="geometry" />
        </mxCell>
        <mxCell id="xdMU3iZf9lZtiUBWE6Kj-83" style="edgeStyle=orthogonalEdgeStyle;rounded=0;orthogonalLoop=1;jettySize=auto;html=1;exitX=0.5;exitY=1;exitDx=0;exitDy=0;entryX=0.115;entryY=-0.003;entryDx=0;entryDy=0;entryPerimeter=0;endArrow=none;endFill=0;" parent="1" source="xdMU3iZf9lZtiUBWE6Kj-84" target="xdMU3iZf9lZtiUBWE6Kj-80" edge="1">
          <mxGeometry relative="1" as="geometry" />
        </mxCell>
        <mxCell id="xdMU3iZf9lZtiUBWE6Kj-84" value="&lt;u&gt;UserID&lt;/u&gt;" style="ellipse;whiteSpace=wrap;html=1;" parent="1" vertex="1">
          <mxGeometry x="-1135" y="-4150" width="60" height="35" as="geometry" />
        </mxCell>
        <mxCell id="82ZFuDDCMctr4lIdkE6s-73" style="edgeStyle=orthogonalEdgeStyle;curved=1;orthogonalLoop=1;jettySize=auto;html=1;exitX=0.5;exitY=0;exitDx=0;exitDy=0;entryX=0.75;entryY=1;entryDx=0;entryDy=0;endArrow=none;endFill=0;" parent="1" source="xdMU3iZf9lZtiUBWE6Kj-88" target="xdMU3iZf9lZtiUBWE6Kj-80" edge="1">
          <mxGeometry relative="1" as="geometry" />
        </mxCell>
        <mxCell id="xdMU3iZf9lZtiUBWE6Kj-88" value="Name" style="ellipse;whiteSpace=wrap;html=1;" parent="1" vertex="1">
          <mxGeometry x="-1055" y="-4015" width="70" height="40" as="geometry" />
        </mxCell>
        <mxCell id="xdMU3iZf9lZtiUBWE6Kj-91" value="has" style="rhombus;whiteSpace=wrap;html=1;" parent="1" vertex="1">
          <mxGeometry x="-1115" y="-4280" width="80" height="80" as="geometry" />
        </mxCell>
        <mxCell id="xdMU3iZf9lZtiUBWE6Kj-147" value="(1,m)" style="text;html=1;resizable=0;autosize=1;align=center;verticalAlign=middle;points=[];fillColor=none;strokeColor=none;rounded=0;" parent="1" vertex="1">
          <mxGeometry x="-1395" y="-4060" width="40" height="20" as="geometry" />
        </mxCell>
        <mxCell id="xdMU3iZf9lZtiUBWE6Kj-149" value="(1,1)" style="text;html=1;resizable=0;autosize=1;align=center;verticalAlign=middle;points=[];fillColor=none;strokeColor=none;rounded=0;" parent="1" vertex="1">
          <mxGeometry x="-940" y="-4135" width="40" height="20" as="geometry" />
        </mxCell>
        <mxCell id="xdMU3iZf9lZtiUBWE6Kj-163" value="(1,m)" style="text;html=1;resizable=0;autosize=1;align=center;verticalAlign=middle;points=[];fillColor=none;strokeColor=none;rounded=0;" parent="1" vertex="1">
          <mxGeometry x="-1120" y="-4290" width="40" height="20" as="geometry" />
        </mxCell>
        <mxCell id="xdMU3iZf9lZtiUBWE6Kj-164" value="(1,1)" style="text;html=1;resizable=0;autosize=1;align=center;verticalAlign=middle;points=[];fillColor=none;strokeColor=none;rounded=0;" parent="1" vertex="1">
          <mxGeometry x="-1115" y="-4200" width="40" height="20" as="geometry" />
        </mxCell>
        <mxCell id="xdMU3iZf9lZtiUBWE6Kj-169" value="(1,1)" style="text;html=1;resizable=0;autosize=1;align=center;verticalAlign=middle;points=[];fillColor=none;strokeColor=none;rounded=0;" parent="1" vertex="1">
          <mxGeometry x="-1293" y="-4110" width="40" height="20" as="geometry" />
        </mxCell>
        <mxCell id="dTRodnRZGqjA2vhVQAJh-1" value="(1,1)" style="text;html=1;resizable=0;autosize=1;align=center;verticalAlign=middle;points=[];fillColor=none;strokeColor=none;rounded=0;" parent="1" vertex="1">
          <mxGeometry x="-985" y="-4235" width="40" height="20" as="geometry" />
        </mxCell>
        <mxCell id="82ZFuDDCMctr4lIdkE6s-26" value="(1,1)" style="text;html=1;resizable=0;autosize=1;align=center;verticalAlign=middle;points=[];fillColor=none;strokeColor=none;rounded=0;" parent="1" vertex="1">
          <mxGeometry x="-1283" y="-4055" width="40" height="20" as="geometry" />
        </mxCell>
        <mxCell id="82ZFuDDCMctr4lIdkE6s-38" style="edgeStyle=orthogonalEdgeStyle;curved=1;orthogonalLoop=1;jettySize=auto;html=1;endArrow=none;endFill=0;exitX=0.5;exitY=0;exitDx=0;exitDy=0;" parent="1" source="82ZFuDDCMctr4lIdkE6s-33" target="82ZFuDDCMctr4lIdkE6s-36" edge="1">
          <mxGeometry relative="1" as="geometry">
            <mxPoint x="-775" y="-4210" as="sourcePoint" />
          </mxGeometry>
        </mxCell>
        <mxCell id="82ZFuDDCMctr4lIdkE6s-40" style="edgeStyle=orthogonalEdgeStyle;curved=1;orthogonalLoop=1;jettySize=auto;html=1;endArrow=none;endFill=0;" parent="1" target="82ZFuDDCMctr4lIdkE6s-41" edge="1">
          <mxGeometry relative="1" as="geometry">
            <mxPoint x="-685" y="-4125" as="targetPoint" />
            <mxPoint x="-715" y="-4175" as="sourcePoint" />
          </mxGeometry>
        </mxCell>
        <mxCell id="tBe_GfGEtR8hjlXycrnh-39" style="edgeStyle=orthogonalEdgeStyle;curved=1;orthogonalLoop=1;jettySize=auto;html=1;exitX=0;exitY=0.5;exitDx=0;exitDy=0;entryX=1;entryY=0.5;entryDx=0;entryDy=0;endArrow=none;endFill=0;" edge="1" parent="1" source="82ZFuDDCMctr4lIdkE6s-33" target="tBe_GfGEtR8hjlXycrnh-36">
          <mxGeometry relative="1" as="geometry" />
        </mxCell>
        <mxCell id="82ZFuDDCMctr4lIdkE6s-33" value="Payment" style="rounded=0;whiteSpace=wrap;html=1;" parent="1" vertex="1">
          <mxGeometry x="-835" y="-4205" width="120" height="60" as="geometry" />
        </mxCell>
        <mxCell id="82ZFuDDCMctr4lIdkE6s-36" value="CC Info" style="ellipse;whiteSpace=wrap;html=1;" parent="1" vertex="1">
          <mxGeometry x="-815" y="-4300" width="80" height="50" as="geometry" />
        </mxCell>
        <mxCell id="82ZFuDDCMctr4lIdkE6s-39" value="(1,1)" style="text;html=1;resizable=0;autosize=1;align=center;verticalAlign=middle;points=[];fillColor=none;strokeColor=none;rounded=0;" parent="1" vertex="1">
          <mxGeometry x="-905" y="-4200" width="40" height="20" as="geometry" />
        </mxCell>
        <mxCell id="82ZFuDDCMctr4lIdkE6s-41" value="Payment amount" style="ellipse;whiteSpace=wrap;html=1;" parent="1" vertex="1">
          <mxGeometry x="-653" y="-4140" width="80" height="50" as="geometry" />
        </mxCell>
        <mxCell id="82ZFuDDCMctr4lIdkE6s-44" style="edgeStyle=orthogonalEdgeStyle;curved=1;orthogonalLoop=1;jettySize=auto;html=1;exitX=0.5;exitY=0;exitDx=0;exitDy=0;entryX=0.716;entryY=1.037;entryDx=0;entryDy=0;entryPerimeter=0;endArrow=none;endFill=0;" parent="1" source="82ZFuDDCMctr4lIdkE6s-43" target="82ZFuDDCMctr4lIdkE6s-33" edge="1">
          <mxGeometry relative="1" as="geometry" />
        </mxCell>
        <mxCell id="82ZFuDDCMctr4lIdkE6s-43" value="&lt;u&gt;Payment ID&lt;/u&gt;" style="ellipse;whiteSpace=wrap;html=1;" parent="1" vertex="1">
          <mxGeometry x="-793" y="-4120" width="80" height="50" as="geometry" />
        </mxCell>
        <mxCell id="82ZFuDDCMctr4lIdkE6s-50" style="edgeStyle=orthogonalEdgeStyle;curved=1;orthogonalLoop=1;jettySize=auto;html=1;exitX=1;exitY=0;exitDx=0;exitDy=0;endArrow=none;endFill=0;" parent="1" source="82ZFuDDCMctr4lIdkE6s-49" target="xdMU3iZf9lZtiUBWE6Kj-61" edge="1">
          <mxGeometry relative="1" as="geometry" />
        </mxCell>
        <mxCell id="82ZFuDDCMctr4lIdkE6s-49" value="Order Total" style="ellipse;whiteSpace=wrap;html=1;" parent="1" vertex="1">
          <mxGeometry x="-1225" y="-4340" width="80" height="50" as="geometry" />
        </mxCell>
        <mxCell id="82ZFuDDCMctr4lIdkE6s-52" value="QTY ordered" style="ellipse;whiteSpace=wrap;html=1;" parent="1" vertex="1">
          <mxGeometry x="-1035" y="-4510" width="80" height="50" as="geometry" />
        </mxCell>
        <mxCell id="82ZFuDDCMctr4lIdkE6s-69" style="edgeStyle=orthogonalEdgeStyle;curved=1;orthogonalLoop=1;jettySize=auto;html=1;exitX=1;exitY=0.5;exitDx=0;exitDy=0;entryX=-0.004;entryY=0.882;entryDx=0;entryDy=0;entryPerimeter=0;endArrow=none;endFill=0;" parent="1" source="82ZFuDDCMctr4lIdkE6s-58" target="xdMU3iZf9lZtiUBWE6Kj-80" edge="1">
          <mxGeometry relative="1" as="geometry" />
        </mxCell>
        <mxCell id="82ZFuDDCMctr4lIdkE6s-58" value="Billing Address&lt;br&gt;" style="ellipse;whiteSpace=wrap;html=1;" parent="1" vertex="1">
          <mxGeometry x="-1215" y="-4055" width="70" height="40" as="geometry" />
        </mxCell>
        <mxCell id="82ZFuDDCMctr4lIdkE6s-70" style="edgeStyle=orthogonalEdgeStyle;curved=1;orthogonalLoop=1;jettySize=auto;html=1;exitX=1;exitY=1;exitDx=0;exitDy=0;entryX=0;entryY=0;entryDx=0;entryDy=0;endArrow=none;endFill=0;" parent="1" source="82ZFuDDCMctr4lIdkE6s-59" target="xdMU3iZf9lZtiUBWE6Kj-80" edge="1">
          <mxGeometry relative="1" as="geometry" />
        </mxCell>
        <mxCell id="82ZFuDDCMctr4lIdkE6s-59" value="Phone" style="ellipse;whiteSpace=wrap;html=1;" parent="1" vertex="1">
          <mxGeometry x="-1215" y="-4150" width="70" height="40" as="geometry" />
        </mxCell>
        <mxCell id="82ZFuDDCMctr4lIdkE6s-67" style="edgeStyle=orthogonalEdgeStyle;curved=1;orthogonalLoop=1;jettySize=auto;html=1;exitX=0;exitY=0.5;exitDx=0;exitDy=0;endArrow=none;endFill=0;" parent="1" source="82ZFuDDCMctr4lIdkE6s-60" target="xdMU3iZf9lZtiUBWE6Kj-80" edge="1">
          <mxGeometry relative="1" as="geometry" />
        </mxCell>
        <mxCell id="82ZFuDDCMctr4lIdkE6s-60" value="Shipping Address" style="ellipse;whiteSpace=wrap;html=1;" parent="1" vertex="1">
          <mxGeometry x="-990" y="-4085" width="70" height="40" as="geometry" />
        </mxCell>
        <mxCell id="82ZFuDDCMctr4lIdkE6s-72" style="edgeStyle=orthogonalEdgeStyle;curved=1;orthogonalLoop=1;jettySize=auto;html=1;exitX=0.5;exitY=0;exitDx=0;exitDy=0;endArrow=none;endFill=0;" parent="1" source="82ZFuDDCMctr4lIdkE6s-61" target="xdMU3iZf9lZtiUBWE6Kj-80" edge="1">
          <mxGeometry relative="1" as="geometry">
            <Array as="points">
              <mxPoint x="-1115" y="-4020" />
              <mxPoint x="-1065" y="-4020" />
            </Array>
          </mxGeometry>
        </mxCell>
        <mxCell id="82ZFuDDCMctr4lIdkE6s-61" value="Email" style="ellipse;whiteSpace=wrap;html=1;" parent="1" vertex="1">
          <mxGeometry x="-1150" y="-4012.5" width="70" height="40" as="geometry" />
        </mxCell>
        <mxCell id="82ZFuDDCMctr4lIdkE6s-65" style="edgeStyle=orthogonalEdgeStyle;curved=1;orthogonalLoop=1;jettySize=auto;html=1;exitX=0.5;exitY=1;exitDx=0;exitDy=0;entryX=0.897;entryY=0.009;entryDx=0;entryDy=0;entryPerimeter=0;endArrow=none;endFill=0;" parent="1" source="82ZFuDDCMctr4lIdkE6s-62" target="xdMU3iZf9lZtiUBWE6Kj-80" edge="1">
          <mxGeometry relative="1" as="geometry" />
        </mxCell>
        <mxCell id="82ZFuDDCMctr4lIdkE6s-62" value="Internal notes&lt;br&gt;" style="ellipse;whiteSpace=wrap;html=1;" parent="1" vertex="1">
          <mxGeometry x="-1050" y="-4150" width="70" height="40" as="geometry" />
        </mxCell>
        <mxCell id="tBe_GfGEtR8hjlXycrnh-7" value="" style="triangle;whiteSpace=wrap;html=1;rotation=90;" vertex="1" parent="1">
          <mxGeometry x="-1588" y="-3930" width="80" height="110" as="geometry" />
        </mxCell>
        <mxCell id="tBe_GfGEtR8hjlXycrnh-11" style="edgeStyle=orthogonalEdgeStyle;curved=1;orthogonalLoop=1;jettySize=auto;html=1;exitX=0.5;exitY=0;exitDx=0;exitDy=0;entryX=0.5;entryY=1;entryDx=0;entryDy=0;endArrow=none;endFill=0;" edge="1" parent="1" source="tBe_GfGEtR8hjlXycrnh-8" target="tBe_GfGEtR8hjlXycrnh-7">
          <mxGeometry relative="1" as="geometry" />
        </mxCell>
        <mxCell id="tBe_GfGEtR8hjlXycrnh-42" style="edgeStyle=orthogonalEdgeStyle;curved=1;orthogonalLoop=1;jettySize=auto;html=1;exitX=0.5;exitY=1;exitDx=0;exitDy=0;endArrow=none;endFill=0;entryX=0.5;entryY=0;entryDx=0;entryDy=0;" edge="1" parent="1" source="tBe_GfGEtR8hjlXycrnh-8" target="tBe_GfGEtR8hjlXycrnh-43">
          <mxGeometry relative="1" as="geometry">
            <mxPoint x="-1697.8" y="-3720" as="targetPoint" />
          </mxGeometry>
        </mxCell>
        <mxCell id="tBe_GfGEtR8hjlXycrnh-8" value="Meds" style="rounded=0;whiteSpace=wrap;html=1;" vertex="1" parent="1">
          <mxGeometry x="-1763" y="-3810" width="130" height="60" as="geometry" />
        </mxCell>
        <mxCell id="tBe_GfGEtR8hjlXycrnh-12" style="edgeStyle=orthogonalEdgeStyle;curved=1;orthogonalLoop=1;jettySize=auto;html=1;exitX=0.5;exitY=0;exitDx=0;exitDy=0;entryX=0.919;entryY=0.483;entryDx=0;entryDy=0;entryPerimeter=0;endArrow=none;endFill=0;" edge="1" parent="1" source="tBe_GfGEtR8hjlXycrnh-9" target="tBe_GfGEtR8hjlXycrnh-7">
          <mxGeometry relative="1" as="geometry" />
        </mxCell>
        <mxCell id="tBe_GfGEtR8hjlXycrnh-9" value="Armor" style="rounded=0;whiteSpace=wrap;html=1;" vertex="1" parent="1">
          <mxGeometry x="-1608" y="-3810" width="130" height="60" as="geometry" />
        </mxCell>
        <mxCell id="tBe_GfGEtR8hjlXycrnh-13" style="edgeStyle=orthogonalEdgeStyle;curved=1;orthogonalLoop=1;jettySize=auto;html=1;exitX=0.5;exitY=0;exitDx=0;exitDy=0;entryX=0.433;entryY=0.16;entryDx=0;entryDy=0;entryPerimeter=0;endArrow=none;endFill=0;" edge="1" parent="1" source="tBe_GfGEtR8hjlXycrnh-10" target="tBe_GfGEtR8hjlXycrnh-7">
          <mxGeometry relative="1" as="geometry" />
        </mxCell>
        <mxCell id="tBe_GfGEtR8hjlXycrnh-46" style="edgeStyle=orthogonalEdgeStyle;curved=1;orthogonalLoop=1;jettySize=auto;html=1;exitX=0.5;exitY=1;exitDx=0;exitDy=0;entryX=0.5;entryY=0;entryDx=0;entryDy=0;endArrow=none;endFill=0;" edge="1" parent="1" source="tBe_GfGEtR8hjlXycrnh-10" target="tBe_GfGEtR8hjlXycrnh-45">
          <mxGeometry relative="1" as="geometry" />
        </mxCell>
        <mxCell id="tBe_GfGEtR8hjlXycrnh-10" value="Food&lt;br&gt;" style="rounded=0;whiteSpace=wrap;html=1;" vertex="1" parent="1">
          <mxGeometry x="-1453" y="-3810" width="130" height="60" as="geometry" />
        </mxCell>
        <mxCell id="tBe_GfGEtR8hjlXycrnh-14" value="&lt;u&gt;&lt;b&gt;GENERALIZATION&lt;br&gt;DISJOINT&lt;/b&gt;&lt;/u&gt;" style="text;html=1;strokeColor=none;fillColor=none;align=center;verticalAlign=middle;whiteSpace=wrap;rounded=0;" vertex="1" parent="1">
          <mxGeometry x="-1603" y="-3910" width="105" height="40" as="geometry" />
        </mxCell>
        <mxCell id="tBe_GfGEtR8hjlXycrnh-16" value="Type" style="ellipse;whiteSpace=wrap;html=1;" vertex="1" parent="1">
          <mxGeometry x="-1493" y="-4015" width="70" height="40" as="geometry" />
        </mxCell>
        <mxCell id="tBe_GfGEtR8hjlXycrnh-17" value="Image" style="ellipse;whiteSpace=wrap;html=1;" vertex="1" parent="1">
          <mxGeometry x="-1683" y="-4000" width="70" height="40" as="geometry" />
        </mxCell>
        <mxCell id="tBe_GfGEtR8hjlXycrnh-22" value="" style="edgeStyle=orthogonalEdgeStyle;curved=1;orthogonalLoop=1;jettySize=auto;html=1;endArrow=none;endFill=0;" edge="1" parent="1" source="tBe_GfGEtR8hjlXycrnh-21" target="tBe_GfGEtR8hjlXycrnh-9">
          <mxGeometry relative="1" as="geometry" />
        </mxCell>
        <mxCell id="tBe_GfGEtR8hjlXycrnh-21" value="Armor class" style="ellipse;whiteSpace=wrap;html=1;" vertex="1" parent="1">
          <mxGeometry x="-1578" y="-3720" width="70" height="40" as="geometry" />
        </mxCell>
        <mxCell id="tBe_GfGEtR8hjlXycrnh-23" value="Order Details&lt;br&gt;" style="rounded=0;whiteSpace=wrap;html=1;" vertex="1" parent="1">
          <mxGeometry x="-1633" y="-4425" width="120" height="60" as="geometry" />
        </mxCell>
        <mxCell id="tBe_GfGEtR8hjlXycrnh-34" style="edgeStyle=orthogonalEdgeStyle;curved=1;orthogonalLoop=1;jettySize=auto;html=1;exitX=0.5;exitY=1;exitDx=0;exitDy=0;entryX=0.712;entryY=-0.004;entryDx=0;entryDy=0;entryPerimeter=0;endArrow=none;endFill=0;" edge="1" parent="1" source="tBe_GfGEtR8hjlXycrnh-27" target="tBe_GfGEtR8hjlXycrnh-23">
          <mxGeometry relative="1" as="geometry" />
        </mxCell>
        <mxCell id="tBe_GfGEtR8hjlXycrnh-27" value="Item ID" style="ellipse;whiteSpace=wrap;html=1;" vertex="1" parent="1">
          <mxGeometry x="-1548" y="-4510" width="80" height="50" as="geometry" />
        </mxCell>
        <mxCell id="tBe_GfGEtR8hjlXycrnh-30" style="edgeStyle=orthogonalEdgeStyle;curved=1;orthogonalLoop=1;jettySize=auto;html=1;exitX=1;exitY=0;exitDx=0;exitDy=0;entryX=0.25;entryY=1;entryDx=0;entryDy=0;endArrow=none;endFill=0;" edge="1" parent="1" source="tBe_GfGEtR8hjlXycrnh-28" target="tBe_GfGEtR8hjlXycrnh-23">
          <mxGeometry relative="1" as="geometry" />
        </mxCell>
        <mxCell id="tBe_GfGEtR8hjlXycrnh-28" value="QTY Ordered" style="ellipse;whiteSpace=wrap;html=1;" vertex="1" parent="1">
          <mxGeometry x="-1668" y="-4330" width="80" height="50" as="geometry" />
        </mxCell>
        <mxCell id="tBe_GfGEtR8hjlXycrnh-31" style="edgeStyle=orthogonalEdgeStyle;curved=1;orthogonalLoop=1;jettySize=auto;html=1;exitX=0.5;exitY=0;exitDx=0;exitDy=0;entryX=0.75;entryY=1;entryDx=0;entryDy=0;endArrow=none;endFill=0;" edge="1" parent="1" source="tBe_GfGEtR8hjlXycrnh-29" target="tBe_GfGEtR8hjlXycrnh-23">
          <mxGeometry relative="1" as="geometry" />
        </mxCell>
        <mxCell id="tBe_GfGEtR8hjlXycrnh-29" value="Price&amp;nbsp;" style="ellipse;whiteSpace=wrap;html=1;" vertex="1" parent="1">
          <mxGeometry x="-1553" y="-4340" width="80" height="50" as="geometry" />
        </mxCell>
        <mxCell id="tBe_GfGEtR8hjlXycrnh-36" value="Captures" style="rhombus;whiteSpace=wrap;html=1;" vertex="1" parent="1">
          <mxGeometry x="-980" y="-4215" width="80" height="80" as="geometry" />
        </mxCell>
        <mxCell id="tBe_GfGEtR8hjlXycrnh-40" style="edgeStyle=orthogonalEdgeStyle;curved=1;orthogonalLoop=1;jettySize=auto;html=1;exitX=1;exitY=1;exitDx=0;exitDy=0;entryX=1;entryY=0.5;entryDx=0;entryDy=0;endArrow=none;endFill=0;" edge="1" parent="1" source="82ZFuDDCMctr4lIdkE6s-33" target="82ZFuDDCMctr4lIdkE6s-33">
          <mxGeometry relative="1" as="geometry" />
        </mxCell>
        <mxCell id="tBe_GfGEtR8hjlXycrnh-41" value="(1,m)" style="text;html=1;resizable=0;autosize=1;align=center;verticalAlign=middle;points=[];fillColor=none;strokeColor=none;rounded=0;" vertex="1" parent="1">
          <mxGeometry x="-1383" y="-4110" width="40" height="20" as="geometry" />
        </mxCell>
        <mxCell id="tBe_GfGEtR8hjlXycrnh-43" value="Treatment type" style="ellipse;whiteSpace=wrap;html=1;" vertex="1" parent="1">
          <mxGeometry x="-1733" y="-3720" width="70" height="40" as="geometry" />
        </mxCell>
        <mxCell id="tBe_GfGEtR8hjlXycrnh-45" value="Food Type" style="ellipse;whiteSpace=wrap;html=1;" vertex="1" parent="1">
          <mxGeometry x="-1423" y="-3720" width="70" height="40" as="geometry" />
        </mxCell>
        <mxCell id="tBe_GfGEtR8hjlXycrnh-47" value="User ID" style="ellipse;whiteSpace=wrap;html=1;" vertex="1" parent="1">
          <mxGeometry x="-1130" y="-4510" width="80" height="50" as="geometry" />
        </mxCell>
      </root>
    </mxGraphModel>
  </diagram>
</mxfile>
